<?xml version="1.0" encoding="UTF-8" standalone="no"?>
<svg width="200" height="200" viewBox="0 0 200 200" xmlns="http://www.w3.org/2000/svg">
  <!-- Baby chicken -->
  <g transform="translate(100, 120)">
    <!-- Body (smaller and rounder for baby) -->
    <ellipse cx="0" cy="0" rx="45" ry="40" fill="#fff7d1"/>
    
    <!-- Legs -->
    <path d="M-15,35 L-20,60 L-10,60 L-5,35" fill="#ffcc00"/>
    <path d="M15,35 L20,60 L10,60 L5,35" fill="#ffcc00"/>
    
    <!-- Wings -->
    <path d="M-30,-5 Q-45,-15 -35,15 Q-15,10 -30,-5 Z" fill="#fff0a0"/>
    <path d="M30,-5 Q45,-15 35,15 Q15,10 30,-5 Z" fill="#fff0a0"/>
    
    <!-- Head -->
    <circle cx="0" cy="-30" r="25" fill="#fff7d1"/>
    
    <!-- Face -->
    <circle cx="-8" cy="-35" r="4" fill="#000"/>
    <circle cx="8" cy="-35" r="4" fill="#000"/>
    
    <!-- Eyelids -->
    <path d="M-12,-38 C-10,-42 -6,-42 -4,-38" fill="none" stroke="#000" stroke-width="1"/>
    <path d="M4,-38 C6,-42 10,-42 12,-38" fill="none" stroke="#000" stroke-width="1"/>
    
    <!-- Beak -->
    <path d="M0,-30 L10,-25 L0,-20 L-10,-25 Z" fill="#ffaa00"/>
    
    <!-- Small comb -->
    <path d="M0,-55 L5,-60 L10,-55 L15,-60 L10,-50 L0,-52 Z" fill="#ffaaaa"/>
    
    <!-- Blush marks -->
    <circle cx="-15" cy="-25" r="5" fill="#ffcccc" opacity="0.6"/>
    <circle cx="15" cy="-25" r="5" fill="#ffcccc" opacity="0.6"/>
  </g>
</svg>