<svg width="200" height="200" viewBox="0 0 200 200" fill="none" xmlns="http://www.w3.org/2000/svg">
  <!-- Golden Chicken -->
  <circle cx="100" cy="105" r="75" fill="#FFD700" />
  <circle cx="100" cy="35" r="30" fill="#FFD700" />
  <path d="M90 30 Q100 15 110 30" stroke="#FF5722" stroke-width="3" fill="none" />
  <circle cx="90" cy="35" r="5" fill="#000000" />
  <circle cx="110" cy="35" r="5" fill="#000000" />
  <path d="M95 45 Q100 55 105 45" stroke="#FF5722" stroke-width="3" fill="none" />
  <path d="M70 75 L35 45" stroke="#FFD700" stroke-width="14" stroke-linecap="round" />
  <path d="M130 75 L165 45" stroke="#FFD700" stroke-width="14" stroke-linecap="round" />
  <path d="M85 155 L70 195" stroke="#FF5722" stroke-width="8" stroke-linecap="round" />
  <path d="M115 155 L130 195" stroke="#FF5722" stroke-width="8" stroke-linecap="round" />
  <path d="M70 75 L45 60" stroke="#FF5722" stroke-width="4" stroke-linecap="round" />
  <path d="M130 75 L155 60" stroke="#FF5722" stroke-width="4" stroke-linecap="round" />
  <!-- Crown -->
  <path d="M80 15 L100 5 L120 15 L115 25 L100 20 L85 25 L80 15" fill="#FF5722" />
</svg>