<?xml version="1.0" encoding="UTF-8" standalone="no"?>
<svg width="200" height="200" viewBox="0 0 200 200" xmlns="http://www.w3.org/2000/svg">
  <!-- Golden chicken -->
  <g transform="translate(100, 120)">
    <!-- Golden aura effect -->
    <circle cx="0" cy="-5" r="70" fill="#ffcc00" opacity="0.2"/>
    <circle cx="0" cy="-5" r="60" fill="#ffdd00" opacity="0.2"/>
    
    <!-- Body -->
    <ellipse cx="0" cy="0" rx="50" ry="45" fill="#ffd700"/>
    
    <!-- Legs -->
    <path d="M-20,40 L-25,70 L-13,70 L-10,40" fill="#ffaa44"/>
    <path d="M20,40 L25,70 L13,70 L10,40" fill="#ffaa44"/>
    
    <!-- Wings with gradient effect -->
    <path d="M-35,-5 Q-55,-10 -45,20 Q-20,15 -35,-5 Z" fill="#ffdf00"/>
    <path d="M35,-5 Q55,-10 45,20 Q20,15 35,-5 Z" fill="#ffdf00"/>
    
    <!-- Shine highlights on body -->
    <ellipse cx="-15" cy="-15" rx="15" ry="10" fill="#fff4bb" opacity="0.4"/>
    <ellipse cx="20" cy="15" rx="12" ry="8" fill="#fff4bb" opacity="0.3"/>
    
    <!-- Head -->
    <circle cx="0" cy="-35" r="30" fill="#ffd700"/>
    
    <!-- Face -->
    <circle cx="-10" cy="-40" r="5" fill="#000"/>
    <circle cx="10" cy="-40" r="5" fill="#000"/>
    <circle cx="-8" cy="-42" r="2" fill="#fff"/>
    <circle cx="12" cy="-42" r="2" fill="#fff"/>
    
    <!-- Beak -->
    <path d="M0,-35 L15,-30 L0,-25 L-15,-30 Z" fill="#ffcc22"/>
    
    <!-- Fancy golden crown/comb -->
    <path d="M0,-65 L10,-80 L15,-65 L25,-75 L30,-60 L20,-55 L5,-60 Z" fill="#e74c3c"/>
    <path d="M5,-70 L8,-85 L12,-68" stroke="#ffd700" stroke-width="2" fill="none"/>
    <circle cx="8" cy="-85" r="3" fill="#ffd700"/>
    
    <!-- Wattle -->
    <path d="M0,-25 L-5,-15 L0,-10 L5,-15 Z" fill="#e74c3c"/>
    
    <!-- Golden sparkles -->
    <circle cx="-40" cy="-30" r="2" fill="#ffee00"/>
    <circle cx="35" cy="-40" r="2" fill="#ffee00"/>
    <circle cx="30" cy="30" r="2" fill="#ffee00"/>
    <circle cx="-25" cy="25" r="2" fill="#ffee00"/>
  </g>
</svg>