<?xml version="1.0" encoding="UTF-8" standalone="no"?>
<svg width="200" height="200" viewBox="0 0 200 200" xmlns="http://www.w3.org/2000/svg">
  <!-- Regular chicken -->
  <g transform="translate(100, 120)">
    <!-- Body -->
    <ellipse cx="0" cy="0" rx="50" ry="45" fill="#f8a929"/>
    
    <!-- Legs -->
    <path d="M-20,40 L-25,70 L-13,70 L-10,40" fill="#ffaa00"/>
    <path d="M20,40 L25,70 L13,70 L10,40" fill="#ffaa00"/>
    
    <!-- Wings -->
    <path d="M-35,-5 Q-55,-10 -45,20 Q-20,15 -35,-5 Z" fill="#ffb62f"/>
    <path d="M35,-5 Q55,-10 45,20 Q20,15 35,-5 Z" fill="#ffb62f"/>
    
    <!-- Head -->
    <circle cx="0" cy="-35" r="30" fill="#ffb62f"/>
    
    <!-- Face -->
    <circle cx="-10" cy="-40" r="5" fill="#000"/>
    <circle cx="10" cy="-40" r="5" fill="#000"/>
    <circle cx="-8" cy="-42" r="2" fill="#fff"/>
    <circle cx="12" cy="-42" r="2" fill="#fff"/>
    
    <!-- Beak -->
    <path d="M0,-35 L15,-30 L0,-25 L-15,-30 Z" fill="#ffcc00"/>
    
    <!-- Comb -->
    <path d="M0,-65 L10,-75 L15,-65 L25,-70 L20,-55 L5,-60 Z" fill="#e73c3c"/>
    
    <!-- Wattle -->
    <path d="M0,-25 L-5,-15 L0,-10 L5,-15 Z" fill="#e73c3c"/>
  </g>
</svg>