<?xml version="1.0" standalone="no"?>
<!DOCTYPE svg PUBLIC "-//W3C//DTD SVG 20010904//EN"
 "http://www.w3.org/TR/2001/REC-SVG-20010904/DTD/svg10.dtd">
<svg version="1.0" xmlns="http://www.w3.org/2000/svg"
 width="500.000000pt" height="500.000000pt" viewBox="0 0 500.000000 500.000000"
 preserveAspectRatio="xMidYMid meet">

<g transform="translate(0.000000,500.000000) scale(0.100000,-0.100000)"
fill="#000000" stroke="none">
<path d="M3480 4013 c0 -41 -3 -54 -10 -43 -8 12 -10 11 -10 -7 0 -12 -5 -25
-11 -29 -6 -3 -20 -26 -30 -50 -12 -26 -31 -48 -47 -56 -57 -27 -99 -163 -72
-234 8 -21 7 -31 -6 -45 -14 -15 -15 -31 -10 -89 4 -38 4 -70 0 -70 -4 0 -34
24 -68 53 -56 49 -164 129 -226 169 -60 38 -251 112 -358 139 -63 16 -158 33
-210 37 l-96 7 -8 31 c-9 36 -66 91 -103 100 -32 8 -91 0 -132 -17 -31 -12
-34 -12 -62 15 -66 63 -149 52 -228 -30 -44 -46 -56 -54 -77 -48 -92 23 -182
-90 -188 -233 l-2 -58 -102 -100 c-134 -132 -221 -252 -300 -410 -102 -205
-146 -367 -161 -587 -3 -54 -9 -98 -13 -98 -4 0 -21 20 -39 45 -18 25 -48 52
-66 59 -19 8 -40 27 -49 43 -20 40 -82 94 -134 117 -35 16 -49 18 -71 9 -23
-8 -33 -7 -52 8 -14 11 -41 19 -65 19 -32 0 -49 8 -81 35 -42 36 -73 45 -73
23 0 -7 20 -31 45 -53 34 -30 43 -44 36 -55 -9 -12 -16 -11 -56 8 -25 12 -51
22 -57 22 -17 0 22 -39 63 -62 43 -24 58 -55 57 -114 -1 -62 62 -149 230 -319
33 -33 71 -79 86 -102 29 -48 44 -58 103 -68 23 -3 48 -14 55 -23 11 -14 10
-15 -12 -8 -146 42 -390 -13 -436 -99 -12 -22 -15 -38 -9 -44 6 -6 63 -14 127
-20 99 -7 128 -14 185 -41 62 -28 192 -117 193 -131 0 -3 -26 -16 -57 -29
-170 -69 -253 -125 -253 -171 0 -26 376 -797 409 -838 37 -48 99 -68 155 -51
22 6 140 58 261 115 121 56 282 131 359 167 l139 64 76 -38 c158 -78 315 -108
560 -108 233 0 351 24 526 109 194 95 366 243 484 419 56 83 163 306 187 388
21 69 -3 54 269 178 205 93 339 156 375 175 49 27 91 89 97 144 5 42 -3 62
-107 274 -61 125 -121 251 -132 278 -10 28 -44 102 -75 166 -76 161 -96 169
-246 100 -48 -23 -90 -41 -92 -41 -9 0 -5 78 6 132 20 94 61 168 143 256 42
45 76 86 76 91 0 5 -8 17 -17 26 -52 53 -263 -41 -381 -169 -23 -25 -42 -39
-42 -32 0 8 6 16 12 18 9 3 12 29 11 84 0 43 -1 90 -1 104 1 91 -6 265 -14
340 -5 50 -23 89 -41 91 -7 1 -19 2 -27 3 -8 0 -17 12 -18 26 -4 28 -49 80
-69 80 -9 0 -13 15 -12 53 l1 52 13 -45 14 -45 -2 45 c-2 34 -6 46 -19 48 -16
3 -18 -5 -18 -55z m-1515 -113 c3 -5 -3 -10 -14 -10 -11 0 -32 -12 -47 -27
-15 -16 -23 -22 -19 -14 6 10 4 12 -4 7 -7 -5 -10 -14 -7 -22 3 -7 0 -16 -6
-20 -7 -4 -8 -3 -4 4 4 7 3 12 -2 12 -5 0 -22 -25 -38 -55 -33 -62 -44 -69
-44 -26 0 62 39 122 95 147 36 16 81 18 90 4z m1560 -30 c19 -37 19 -77 -1
-137 -8 -26 -17 -53 -19 -60 -7 -20 -64 15 -71 43 -13 49 1 133 26 159 31 33
46 32 65 -5z m-1330 1 c16 -7 12 -10 -22 -15 -25 -5 -60 -22 -85 -42 -24 -18
-45 -29 -47 -23 -6 17 42 59 85 74 45 16 43 16 69 6z m1423 -90 c3 -22 -13
-51 -28 -51 -13 0 -19 43 -9 62 13 24 33 18 37 -11z m-1894 0 c3 -5 -4 -11
-16 -15 -18 -4 -20 -8 -10 -18 14 -14 16 -62 2 -53 -5 3 -10 -2 -10 -13 0 -22
-35 -62 -55 -62 -22 0 -12 -99 16 -157 13 -26 41 -68 64 -92 l40 -44 -42 22
c-77 39 -143 154 -143 251 0 99 56 190 116 190 18 0 35 -4 38 -9z m1670 -13
c12 -47 6 -57 -23 -39 -9 6 -11 18 -7 35 8 32 22 34 30 4z m147 -41 c-10 -9
-11 -8 -5 6 3 10 9 15 12 12 3 -3 0 -11 -7 -18z m-921 -27 c117 -30 217 -67
289 -106 66 -37 231 -151 231 -161 0 -2 -21 11 -47 30 -187 136 -348 203 -573
238 -41 6 -82 15 -90 21 -23 14 103 0 190 -22z m998 -41 c3 -43 -27 -93 -69
-114 -26 -14 -33 -15 -40 -3 -7 10 -9 10 -9 -2 -1 -25 -20 11 -20 37 0 38 95
129 125 120 6 -2 11 -19 13 -38z m-194 -9 c33 -36 36 -45 36 -98 0 -40 -3 -53
-10 -42 -5 8 -10 11 -10 7 0 -13 -60 26 -74 49 -19 28 -36 92 -29 110 10 27
50 15 87 -26z m-789 -90 c86 -16 169 -43 188 -61 11 -10 29 -21 39 -25 10 -3
18 -10 18 -15 0 -6 4 -8 9 -5 5 3 12 -1 15 -10 3 -8 20 -22 38 -30 64 -28 110
-63 101 -77 -3 -6 -1 -7 5 -3 17 10 41 -6 109 -76 74 -75 113 -122 113 -136 0
-5 -22 -14 -50 -19 l-50 -10 -9 34 c-15 52 -55 98 -107 123 -42 19 -53 21 -86
11 -61 -19 -71 -44 -63 -155 8 -102 -4 -161 -33 -171 -9 -3 -34 -28 -54 -55
-21 -27 -51 -56 -68 -65 -27 -14 -33 -14 -62 1 -36 19 -88 72 -88 91 0 7 -4
13 -9 13 -12 0 -61 124 -61 155 0 14 7 28 15 31 19 8 20 64 1 109 -18 42 -152
234 -180 256 -20 16 -20 16 2 23 13 4 34 20 49 34 14 15 22 20 19 12 -5 -10
-3 -9 7 2 11 14 16 15 26 5 10 -9 12 -9 9 3 -4 17 53 31 92 22 14 -2 43 -8 65
-12z m-438 -43 c114 -58 225 -176 221 -234 -4 -59 2 -80 27 -93 34 -18 25 -24
-20 -11 -33 9 -35 8 -23 -6 12 -15 20 -133 8 -133 -3 0 -6 -20 -8 -44 -2 -34
3 -50 21 -72 12 -16 35 -48 50 -71 15 -24 44 -54 66 -67 29 -19 41 -35 51 -71
18 -65 5 -75 -61 -48 l-50 22 20 -35 c18 -30 28 -64 18 -64 -1 0 -17 4 -36 10
-31 9 -33 8 -26 -13 26 -85 27 -97 14 -113 -18 -22 -72 -12 -116 22 l-36 27 7
-34 c17 -90 18 -119 6 -134 -21 -25 -73 -18 -120 16 l-43 31 6 -31 c4 -17 4
-45 0 -62 -5 -28 -9 -30 -42 -27 -33 3 -36 1 -41 -27 -3 -18 -12 -31 -23 -33
-28 -6 -72 34 -87 78 -9 27 -16 37 -22 28 -11 -18 -10 -70 2 -88 8 -13 10 -13
10 1 0 12 12 4 40 -23 48 -48 78 -48 99 0 13 29 18 32 48 26 29 -5 34 -3 43
21 6 15 8 30 6 34 -3 4 -1 13 3 20 7 10 14 10 39 -3 17 -9 47 -16 67 -16 30 0
37 5 46 28 6 15 9 46 6 70 -4 37 -2 42 12 36 9 -4 37 -9 63 -12 41 -3 48 -1
63 22 10 14 14 33 11 42 -8 20 21 51 35 37 6 -6 13 -36 16 -68 6 -56 5 -58
-16 -52 -18 4 -21 2 -16 -14 4 -10 2 -19 -3 -19 -5 0 -13 -9 -18 -19 -5 -11
-25 -31 -44 -44 -19 -13 -34 -29 -32 -36 1 -7 -2 -10 -7 -7 -12 8 -42 -4 -36
-14 3 -5 -28 -20 -67 -35 -40 -15 -93 -36 -117 -46 -24 -10 -55 -17 -70 -14
-20 4 -22 3 -7 -3 15 -7 16 -10 5 -14 -8 -4 -31 -14 -52 -23 -22 -9 -36 -11
-32 -6 11 19 -3 12 -29 -14 -14 -14 -31 -25 -38 -25 -10 0 -9 3 1 9 12 8 9 11
-12 16 -15 4 -27 13 -27 20 0 7 -7 28 -15 46 l-16 34 5 -60 c3 -33 7 -69 8
-79 6 -42 -21 -24 -39 26 -14 42 -18 80 -17 188 1 74 6 153 11 175 8 34 13 40
38 43 17 2 43 16 59 30 l29 27 -13 -25 c-12 -23 -12 -24 4 -11 9 8 16 21 15
30 -5 51 0 54 36 22 45 -39 126 -64 163 -50 32 12 60 36 74 64 l11 20 -23 -20
-22 -20 22 38 c43 73 14 177 -65 227 -16 11 -52 37 -79 58 l-50 38 3 60 c1 40
-2 64 -11 71 -25 21 -230 65 -273 60 l-41 -6 -27 54 c-24 49 -30 55 -57 55
-30 0 -31 1 -24 38 9 49 23 74 37 68 92 -38 106 -33 138 55 27 74 97 150 154
166 63 18 153 10 212 -20z m1280 -9 c-3 -8 -6 -5 -6 6 -1 11 2 17 5 13 3 -3 4
-12 1 -19z m141 -23 c-1 -27 -5 -42 -11 -38 -6 4 -8 0 -4 -11 4 -10 3 -15 -3
-11 -6 3 -13 -1 -16 -9 -3 -8 -21 -24 -40 -35 l-34 -20 0 21 c0 21 0 21 -15 2
-14 -18 -14 -17 -15 12 0 50 75 133 123 134 14 0 17 -8 15 -45z m-196 -15 c29
-32 38 -49 38 -76 0 -29 -3 -34 -17 -30 -10 2 -28 7 -40 11 -51 14 -97 113
-60 128 27 12 42 5 79 -33z m-1878 -8 c0 -12 3 -19 8 -16 4 3 8 1 8 -3 0 -13
-112 -128 -124 -128 -6 0 -11 -7 -11 -15 -1 -8 -7 -14 -14 -12 -7 1 -10 -1 -8
-5 3 -5 -14 -33 -37 -64 -39 -51 -44 -55 -62 -42 -19 12 -23 9 -52 -36 -18
-27 -32 -53 -32 -59 0 -5 -6 -15 -14 -21 -20 -17 -41 -77 -23 -65 7 5 3 0 -9
-11 -45 -41 -117 -268 -138 -430 -7 -60 -12 -146 -10 -190 3 -78 3 -79 -7 -25
-18 107 10 316 66 489 69 212 178 391 344 564 93 96 117 110 115 69z m1627
-49 c13 -16 12 -17 -3 -4 -17 13 -22 21 -14 21 2 0 10 -8 17 -17z m-1555 -136
c-8 -38 -20 -75 -26 -83 -23 -27 -8 -126 27 -179 25 -39 29 -53 22 -72 -14
-39 -11 -110 7 -127 18 -19 22 -19 80 -5 68 17 77 4 52 -74 -26 -81 -20 -144
16 -187 14 -17 24 -36 20 -41 -3 -5 2 -9 10 -9 19 0 20 -28 6 -114 -11 -69
-17 -77 -47 -70 -16 4 -48 52 -111 163 -118 207 -120 211 -115 247 4 27 0 34
-32 53 -47 27 -167 61 -219 61 -27 0 -50 -8 -74 -26 l-34 -27 6 24 c9 32 85
190 101 209 7 8 25 40 41 70 16 30 31 57 34 60 3 3 14 16 25 30 20 24 20 25 0
10 -11 -8 0 8 24 35 24 28 48 49 55 47 6 -2 8 0 3 4 -4 4 17 31 45 61 l53 53
22 -23 c22 -22 23 -24 9 -90z m2014 61 c0 -26 -3 -30 -11 -18 -8 11 -9 5 -5
-25 4 -27 2 -35 -4 -25 -7 11 -10 11 -10 2 0 -20 -47 -62 -69 -62 -49 0 -31
83 29 134 45 37 70 35 70 -6z m319 -19 c-30 -28 -62 -58 -71 -66 -10 -9 -28
-42 -40 -74 -12 -32 -27 -55 -32 -52 -5 4 -7 -1 -3 -10 3 -9 0 -35 -8 -59 -7
-24 -13 -37 -14 -30 -1 7 -5 11 -10 7 -6 -3 -14 2 -19 11 -8 15 -10 15 -16 -1
-3 -9 -4 -21 0 -26 3 -5 1 -9 -4 -9 -5 0 -12 -12 -15 -27 -4 -16 -16 -44 -28
-63 -19 -31 -23 -33 -29 -16 -6 18 -7 18 -13 2 -4 -10 -7 -35 -7 -56 0 -21 -4
-42 -10 -45 -15 -9 -12 110 5 211 17 97 45 155 104 217 67 72 179 135 240 137
20 0 17 -6 -30 -51z m-539 16 c36 -19 70 -66 70 -98 0 -39 -17 -42 -63 -11
-23 16 -45 27 -49 26 -7 -2 -28 62 -28 86 0 16 35 15 70 -3z m-959 -81 l24
-27 -27 18 c-16 9 -28 21 -28 26 0 14 5 11 31 -17z m905 -96 c44 -45 124 -176
124 -202 0 -4 14 -39 31 -78 17 -38 29 -71 27 -73 -2 -2 -18 25 -36 60 -32 62
-72 93 -72 57 -1 -10 -11 8 -24 38 -35 84 -95 200 -129 250 l-31 44 30 -21
c16 -12 52 -45 80 -75z m-333 51 c84 -43 113 -128 88 -256 -5 -24 -7 -43 -5
-43 2 0 15 24 29 54 34 73 49 84 83 65 15 -8 32 -26 39 -39 15 -30 17 -99 2
-120 -8 -11 -9 -2 -6 35 3 29 0 60 -6 72 -10 19 -12 14 -13 -36 0 -32 -9 -81
-19 -109 -10 -28 -16 -54 -12 -58 3 -3 18 3 33 15 15 11 32 21 38 21 6 0 -4
-10 -21 -21 -18 -12 -33 -27 -33 -34 0 -8 -11 -27 -25 -43 -13 -16 -21 -32
-18 -36 4 -4 -11 -4 -32 -1 -22 3 -95 12 -162 20 -162 20 -160 19 -123 61 72
83 103 185 98 330 -2 95 -1 107 17 120 23 17 21 17 48 3z m-1317 -39 c0 -8 4
-23 8 -33 10 -21 -11 -50 -31 -43 -18 7 -17 -25 2 -50 18 -24 19 -34 2 -34
-19 0 -57 72 -57 108 0 19 9 39 22 52 25 23 53 23 54 0z m-406 -40 c-7 -12
-17 -16 -31 -13 l-22 6 22 19 c27 21 45 15 31 -12z m1181 -80 c45 -163 126
-268 252 -329 34 -16 56 -30 48 -30 -7 -1 -42 13 -78 31 -66 32 -158 120 -189
180 -21 41 -53 138 -63 194 -13 69 6 39 30 -46z m1072 -7 c4 -49 9 -99 11
-113 5 -24 5 -24 -9 -6 -8 11 -17 36 -20 55 -3 20 -12 58 -20 85 -19 63 -19
66 9 66 22 0 23 -4 29 -87z m54 50 c-10 -32 -13 -34 -15 -15 -4 28 4 52 17 52
5 0 4 -16 -2 -37z m-1654 -25 c66 -16 84 -24 69 -29 -20 -8 -37 -27 -37 -43 0
-5 -7 -10 -15 -12 -31 -5 -185 -75 -188 -84 -4 -12 -75 -50 -92 -50 -18 0 -10
74 14 125 30 65 86 115 128 115 18 0 72 -10 121 -22z m-733 -22 c0 -3 -4 -8
-10 -11 -5 -3 -10 -1 -10 4 0 6 5 11 10 11 6 0 10 -2 10 -4z m825 -92 c-20
-49 -61 -92 -102 -110 -36 -15 -81 -18 -100 -6 -7 5 11 8 40 8 66 -1 105 27
143 102 30 60 43 64 19 6z m2050 -24 c3 -5 0 -10 -7 -11 -10 0 -10 -2 0 -6 22
-9 13 -20 -12 -16 -16 3 -60 -11 -118 -37 -51 -23 -124 -56 -163 -73 -38 -17
-137 -61 -220 -99 -82 -39 -166 -74 -185 -80 -19 -5 -89 -36 -155 -68 -66 -32
-174 -82 -240 -110 -66 -29 -195 -88 -287 -131 -92 -43 -172 -79 -178 -79 -6
0 -8 -5 -4 -12 4 -6 3 -8 -4 -4 -6 3 -26 0 -44 -8 -18 -8 -59 -25 -91 -37 -40
-16 -53 -25 -45 -32 9 -6 6 -7 -9 -4 -17 4 -20 1 -15 -12 5 -14 4 -14 -13 -1
-10 8 -16 10 -12 4 4 -7 0 -15 -9 -18 -8 -3 -12 -2 -9 4 3 5 -31 -7 -77 -26
-46 -20 -155 -67 -243 -104 -88 -38 -182 -80 -210 -93 -27 -13 -60 -28 -73
-31 -12 -4 -20 -12 -17 -17 3 -5 0 -7 -7 -4 -7 3 -46 -11 -86 -30 -41 -19 -77
-33 -81 -31 -4 3 -13 0 -21 -6 -12 -8 -12 -9 3 -4 30 10 18 -3 -23 -24 -21
-11 -46 -20 -54 -20 -28 0 -160 -57 -366 -159 -112 -56 -211 -99 -218 -96 -7
2 -11 1 -8 -3 3 -5 -10 -16 -30 -25 -44 -22 -60 -55 -46 -96 15 -43 8 -39 -23
15 -31 53 -28 83 10 108 27 17 102 51 307 137 65 27 126 53 135 58 19 10 110
51 393 176 96 42 209 92 251 111 42 19 80 34 84 34 5 0 96 40 204 89 108 49
246 109 307 134 61 25 164 71 230 103 65 31 169 78 229 104 170 74 358 159
379 171 11 7 58 27 105 46 47 19 90 38 96 43 5 4 51 25 100 45 50 21 119 52
155 70 36 18 76 36 90 40 14 4 63 26 110 48 153 72 165 77 187 77 12 0 25 -4
28 -10z m-854 -103 c-10 -9 -11 -8 -5 6 3 10 9 15 12 12 3 -3 0 -11 -7 -18z
m805 -12 c-20 -15 -36 -19 -36 -10 0 5 38 23 50 24 3 0 -4 -6 -14 -14z m-697
-44 c0 -14 -1 -14 -6 -1 -3 8 -13 24 -22 35 -16 20 -16 20 7 1 12 -11 22 -26
21 -35z m-1938 19 c35 -11 75 -27 89 -35 25 -14 25 -14 -16 -15 -44 0 -118
-31 -147 -61 -10 -11 -22 -17 -28 -14 -5 4 -9 1 -9 -5 0 -6 -4 -8 -10 -5 -5 3
-10 3 -10 -2 0 -4 -23 -21 -50 -36 -28 -16 -50 -25 -50 -21 0 3 -8 -4 -19 -17
l-19 -23 8 51 c10 60 38 119 81 168 27 30 37 35 74 35 24 0 71 -9 106 -20z
m2757 8 c-5 -13 -108 -51 -108 -39 0 4 18 13 40 20 21 6 42 16 45 21 9 14 27
12 23 -2z m-2323 -84 c-19 -91 -19 -107 6 -138 29 -37 6 -32 -26 6 -23 28 -26
38 -21 76 6 45 43 139 51 130 3 -2 -2 -36 -10 -74z m224 -77 c12 -20 28 -37
33 -37 6 0 8 -3 5 -6 -12 -13 -57 27 -72 62 -8 20 -15 53 -14 73 l0 36 13 -45
c6 -26 22 -63 35 -83z m1971 41 c18 -46 47 -112 65 -148 34 -67 108 -239 119
-276 5 -17 1 -24 -23 -34 -17 -7 -32 -10 -35 -9 -2 2 -15 -6 -28 -17 -53 -49
-105 -56 -174 -25 -95 43 -173 214 -145 318 16 60 46 92 92 99 21 4 39 8 39 9
0 2 -11 27 -25 57 -32 68 -31 75 8 92 64 28 71 24 107 -66z m-2435 -155 c41
-78 75 -143 75 -145 0 -2 -11 -4 -24 -4 -13 -1 -59 -23 -102 -50 -118 -71
-216 -115 -231 -102 -23 19 -14 44 27 80 l40 35 -60 117 c-33 64 -60 124 -60
132 0 8 17 22 38 30 20 8 45 19 54 24 13 7 21 3 35 -18 33 -48 105 -211 100
-225 -4 -10 16 -6 66 11 40 14 73 26 75 27 1 1 -29 58 -68 126 -38 68 -70 129
-70 134 1 19 31 -31 105 -172z m2535 162 c-14 -8 -29 -14 -35 -14 -5 0 1 6 15
14 14 8 30 14 35 14 6 0 -1 -6 -15 -14z m-454 -24 c-14 -15 -15 -24 -7 -40 6
-11 11 -27 11 -37 0 -16 -1 -16 -20 1 -11 10 -20 24 -20 32 0 7 -4 13 -10 13
-21 0 -9 17 23 32 43 21 43 21 23 -1z m-658 -21 c117 -11 170 -29 86 -30 -37
0 -54 -4 -58 -15 -3 -8 -2 -15 3 -15 17 0 6 -30 -13 -36 -12 -3 -78 -35 -148
-70 -69 -35 -145 -71 -167 -79 -41 -14 -42 -14 -78 18 -41 36 -63 81 -63 131
0 49 8 65 42 82 60 31 162 35 396 14z m-2515 -34 c41 -17 82 -61 101 -108 18
-43 13 -66 -18 -73 -111 -25 -134 -26 -121 -4 4 5 -1 9 -11 9 -13 0 -14 3 -4
15 8 10 32 15 69 16 l56 2 -42 6 c-52 9 -91 43 -99 88 -12 62 7 76 69 49z
m3108 -86 c16 -30 61 -121 99 -202 39 -82 74 -148 79 -148 6 0 21 4 35 10 24
9 28 6 46 -30 11 -22 20 -44 20 -50 0 -6 -35 -28 -79 -49 l-78 -38 -46 93
c-26 51 -57 121 -71 156 -13 35 -48 111 -78 169 l-54 106 36 21 c19 11 41 19
48 19 8 -1 27 -27 43 -57z m-2874 -36 c20 -33 22 -48 17 -104 -4 -36 -9 -68
-13 -72 -3 -4 -40 -9 -81 -12 -52 -4 -70 -2 -60 5 11 7 8 8 -12 3 -39 -9 -70
12 -66 44 3 23 10 29 54 41 46 12 55 11 88 -4 20 -10 43 -29 51 -44 8 -14 14
-21 15 -15 0 7 -18 33 -40 60 -41 49 -59 111 -45 153 7 22 7 22 38 3 18 -10
42 -36 54 -58z m504 -59 c55 -122 67 -155 51 -140 -14 14 -89 164 -107 214
-29 84 7 35 56 -74z m3049 80 c0 -7 -78 -45 -92 -44 -7 0 7 11 32 24 47 24 60
28 60 20z m-3071 -162 c35 -76 76 -166 92 -201 32 -70 38 -115 14 -106 -9 4
-15 0 -15 -10 0 -10 6 -13 18 -9 15 6 15 4 -2 -15 -10 -12 -23 -19 -27 -16 -5
3 -19 -2 -31 -10 -12 -9 -27 -16 -34 -16 -6 0 -27 37 -47 82 -28 62 -34 84
-26 95 7 8 8 13 1 13 -10 0 -25 56 -37 138 -10 65 4 215 20 202 6 -5 40 -72
74 -147z m2131 112 c-25 -13 -49 -24 -55 -24 -5 0 10 11 35 24 25 13 50 24 55
24 6 0 -10 -11 -35 -24z m-2494 -70 c18 -27 27 -73 17 -88 -3 -5 -7 -26 -9
-46 -1 -20 -5 -45 -7 -56 -3 -11 -6 -22 -6 -25 -1 -3 -5 1 -10 9 -7 10 -16 11
-42 3 -31 -10 -83 -16 -117 -13 -7 1 -11 5 -7 10 3 5 0 13 -6 17 -8 4 -9 3 -5
-4 10 -17 -9 -15 -24 3 -21 26 -7 48 40 62 32 10 53 10 74 3 16 -6 31 -8 33
-6 2 2 -1 22 -6 45 -20 90 33 150 75 86z m2334 -5 c-8 -5 -19 -10 -25 -10 -5
0 -3 5 5 10 8 5 20 10 25 10 6 0 3 -5 -5 -10z m315 -43 c23 -43 19 -49 -48
-67 -83 -24 -85 -82 -6 -248 27 -59 45 -108 40 -110 -6 -2 -26 -14 -45 -27
l-34 -23 -13 31 c-16 41 -135 261 -166 307 -34 51 -30 65 25 88 40 18 48 19
55 6 7 -12 15 -6 37 25 37 50 56 62 100 58 29 -2 38 -8 55 -40z m-1749 -153
c47 -97 83 -178 82 -179 -2 -1 -46 -19 -98 -40 -52 -21 -127 -53 -166 -71 -39
-19 -75 -34 -80 -34 -11 0 -112 196 -144 279 -12 30 -17 57 -13 61 18 17 304
160 319 160 10 0 43 -57 100 -176z m2604 171 c0 -6 -76 -45 -87 -45 -4 1 12
12 37 25 50 27 50 27 50 20z m-1381 -19 c-9 -8 -165 -70 -171 -68 -5 1 -8 -2
-8 -6 0 -5 -13 -7 -30 -4 -32 5 -42 22 -12 22 9 1 46 14 82 30 36 16 83 29
104 29 22 1 37 -1 35 -3z m226 -26 c-16 -11 -35 -18 -42 -15 -7 2 -10 -2 -6
-10 3 -9 -4 -18 -18 -24 -31 -11 -37 -5 -13 15 10 8 15 13 9 11 -73 -33 -110
-49 -132 -57 l-28 -10 25 21 c39 33 117 69 163 75 23 4 44 8 46 10 2 2 9 4 15
4 6 0 -2 -9 -19 -20z m-255 -15 c-13 -15 -8 -19 22 -16 9 1 20 -3 24 -10 4 -7
3 -9 -4 -5 -6 3 -16 0 -24 -7 -17 -17 -48 -30 -74 -32 -16 -1 -21 5 -20 25 1
25 39 55 56 45 5 -3 11 -1 15 5 3 5 9 10 12 10 3 0 0 -7 -7 -15z m-2017 -36
c24 19 60 -39 58 -92 -3 -92 -2 -91 -12 -76 -7 11 -9 12 -9 0 0 -7 -6 -11 -15
-7 -8 3 -15 0 -16 -7 0 -7 -7 6 -15 28 -8 22 -14 60 -13 85 1 25 -1 54 -5 65
-6 15 -5 16 2 6 8 -12 13 -12 25 -2z m174 -134 c14 -44 34 -97 44 -117 23 -44
24 -61 4 -34 -15 19 -15 19 -16 -5 -2 -46 3 -64 43 -143 22 -45 33 -74 24 -67
-25 21 -123 230 -135 289 -13 61 -14 155 -3 192 7 25 7 25 10 -5 2 -16 15 -66
29 -110z m1733 115 c0 -5 -7 -10 -16 -10 -8 0 -12 5 -9 10 3 6 10 10 16 10 5
0 9 -4 9 -10z m-53 -95 c7 -33 19 -100 28 -150 8 -49 26 -153 39 -230 14 -76
24 -140 23 -141 -1 -2 -28 -16 -59 -33 l-58 -30 -86 97 c-124 139 -117 132
-104 98 13 -36 42 -237 35 -245 -3 -3 -27 -13 -53 -23 -43 -16 -47 -16 -56 -1
-5 9 -32 42 -60 72 -29 31 -86 101 -126 156 -68 90 -75 97 -81 74 -4 -13 -7
-40 -8 -60 -1 -20 -7 -57 -15 -82 l-14 -47 77 -41 c43 -22 95 -56 117 -74 l39
-34 -25 -18 c-58 -42 -61 -42 -125 2 -33 23 -66 45 -73 49 -7 5 3 -24 22 -63
41 -81 42 -83 20 -74 -8 3 -29 -4 -46 -17 -25 -18 -32 -20 -40 -9 -9 14 -58
114 -160 329 -28 58 -57 117 -64 132 -22 41 -17 54 28 78 41 21 42 21 56 3 17
-22 59 -111 82 -178 l18 -49 7 49 c13 92 24 121 50 133 15 7 26 8 30 1 4 -5
11 -7 17 -3 5 4 0 17 -15 33 -13 14 -34 41 -47 60 l-23 34 24 18 c32 25 76 34
94 19 8 -7 56 -67 106 -134 l92 -121 -6 45 c-4 25 -11 74 -17 110 -15 103 -13
141 12 167 12 13 27 23 33 23 16 0 75 -65 154 -168 35 -46 65 -81 67 -79 3 2
-4 49 -15 103 -31 163 -42 236 -36 243 11 10 99 40 115 38 9 -1 19 -24 27 -62z
m-225 48 c-6 -2 -10 -9 -7 -13 3 -5 12 -7 20 -3 8 3 15 1 15 -4 0 -17 -13 -23
-26 -12 -8 7 -14 7 -19 -1 -3 -5 -12 -10 -18 -10 -7 0 -6 4 3 10 8 5 16 14 16
20 3 18 4 20 17 19 9 0 9 -2 -1 -6z m368 -13 c-8 -5 -19 -10 -25 -10 -5 0 -3
5 5 10 8 5 20 10 25 10 6 0 3 -5 -5 -10z m205 -30 c22 -10 47 -25 55 -32 29
-24 80 -103 90 -138 10 -36 4 -100 -10 -100 -4 0 -11 -11 -14 -24 -8 -32 -52
-83 -87 -101 -85 -45 -206 21 -270 146 -43 86 -4 220 74 254 45 20 115 18 162
-5z m-658 -5 c0 -8 -3 -12 -7 -10 -10 6 -70 -27 -65 -35 8 -12 -56 -62 -71
-56 -7 3 -16 1 -19 -5 -4 -5 -10 -7 -15 -4 -4 3 -6 -5 -2 -17 l5 -22 -23 22
c-13 12 -27 22 -32 22 -4 0 -8 4 -8 9 0 9 81 47 165 76 28 10 54 22 60 27 12
10 12 11 12 -7z m1893 -15 c0 -5 -2 -10 -4 -10 -3 0 -8 5 -11 10 -3 6 -1 10 4
10 6 0 11 -4 11 -10z m-3468 -22 c21 -21 21 -23 4 -26 -12 -3 -16 -10 -13 -24
5 -18 1 -19 -51 -17 -60 2 -102 26 -102 59 0 26 9 30 77 30 52 0 67 -4 85 -22z
m1695 -13 c0 -8 -4 -12 -9 -9 -5 3 -6 10 -3 15 9 13 12 11 12 -6z m968 -25
c-3 -5 -14 -10 -23 -10 -15 0 -15 2 -2 10 20 13 33 13 25 0z m-1195 -80 c0
-22 -4 -40 -10 -40 -5 0 -7 7 -4 15 4 8 1 15 -5 15 -15 0 -14 23 1 38 17 17
18 16 18 -28z m-1339 -21 c16 -19 35 -50 43 -70 23 -56 -7 -47 -53 15 -50 69
-53 74 -46 87 10 15 26 7 56 -32z m1061 -18 c-3 -19 3 -39 18 -59 15 -20 20
-37 15 -51 -3 -11 -9 -21 -13 -21 -4 1 -19 28 -34 60 -21 47 -32 60 -50 61
-20 1 -21 2 -3 6 11 3 29 12 40 19 28 20 32 18 27 -15z m-147 -11 c-41 -20
-63 -26 -70 -19 -7 7 -4 8 9 3 13 -5 17 -4 12 4 -4 8 0 12 11 12 10 1 29 7 43
15 14 8 32 14 40 14 8 0 -12 -13 -45 -29z m-990 0 c24 -27 17 -32 -28 -18 -49
15 -48 27 4 37 3 0 14 -8 24 -19z m2640 -4 c7 3 16 1 19 -4 3 -5 -2 -12 -13
-15 -11 -3 -23 4 -31 17 -9 16 -9 18 0 9 7 -6 18 -9 25 -7z m-1221 -22 c3 -8
2 -12 -4 -9 -6 3 -10 10 -10 16 0 14 7 11 14 -7z m-1504 -23 c62 -20 237 -119
262 -148 10 -12 3 -11 -27 4 -63 32 -85 37 -85 19 0 -19 -20 -20 -73 -5 -28 7
-42 7 -52 -1 -11 -9 -30 -7 -82 11 -37 12 -77 28 -87 35 -17 11 -11 13 40 9
48 -4 55 -2 39 7 -11 7 -57 14 -102 16 -46 3 -80 8 -78 12 3 5 -3 7 -12 5 -10
-2 -47 -6 -83 -9 l-65 -5 37 20 c97 51 258 64 368 30z m2840 -41 c-8 -5 -19
-10 -25 -10 -5 0 -3 5 5 10 8 5 20 10 25 10 6 0 3 -5 -5 -10z m-45 -20 c-3 -5
-12 -10 -18 -10 -7 0 -6 4 3 10 19 12 23 12 15 0z m-2166 -116 c-35 -25 -90
-57 -121 -71 -50 -22 -56 -28 -48 -44 14 -25 -1 -31 -27 -9 -22 17 -22 17 45
49 69 32 134 71 118 71 -5 0 -23 -8 -40 -19 -40 -24 -86 -38 -70 -22 11 12
181 90 198 90 6 1 -19 -20 -55 -45z m331 10 c-19 -9 -46 -18 -59 -20 -14 -3
-28 -7 -33 -10 -4 -3 -8 -3 -8 0 0 11 72 42 103 44 l32 2 -35 -16z m-206 -30
c34 -34 5 -114 -41 -114 -26 0 -63 40 -63 68 0 53 68 83 104 46z m314 -41 c19
-44 19 -48 4 -52 -50 -10 -67 -75 -38 -145 25 -61 101 -97 134 -64 15 15 19
11 34 -45 16 -63 5 -81 -52 -85 -58 -4 -118 20 -162 66 -119 122 -116 296 4
355 48 24 53 22 76 -30z m-199 -46 c-12 -42 -15 -43 -33 -9 -15 29 -15 30 6
24 13 -3 19 -1 15 5 -3 5 0 10 7 10 10 0 12 -8 5 -30z m34 -227 c106 -211 105
-205 36 -233 l-36 -15 -32 67 c-18 36 -64 123 -102 192 -38 70 -69 131 -69
136 0 11 81 53 95 49 6 -1 54 -89 108 -196z m-397 105 c-4 -10 -18 20 -30 65
-4 14 2 8 14 -15 11 -21 19 -44 16 -50z m-231 65 c-7 -11 -79 -50 -92 -50 -10
0 79 58 90 59 5 1 5 -4 2 -9z m151 -22 c4 -13 22 -50 40 -82 32 -59 33 -60 43
-34 13 36 49 58 91 58 60 -1 94 -42 197 -242 l61 -117 -44 -18 c-35 -15 -43
-22 -38 -38 7 -27 -63 92 -111 188 -21 42 -47 86 -58 98 -18 19 -20 19 -38 3
-10 -9 -19 -23 -19 -30 0 -8 29 -71 65 -141 71 -140 71 -139 4 -167 l-35 -15
-132 254 c-73 139 -132 257 -132 262 0 11 59 41 82 42 9 1 20 -9 24 -21z
m1940 12 c24 0 106 -82 125 -125 47 -102 -5 -185 -116 -185 -57 0 -96 19 -132
66 -22 30 -28 49 -31 104 -4 63 -2 69 27 103 30 33 67 49 99 40 8 -1 20 -3 28
-3z m-515 -17 c13 -17 13 -17 -6 -3 -11 8 -22 16 -24 17 -2 2 0 3 6 3 6 0 17
-8 24 -17z m874 -49 c-32 -64 -142 -231 -188 -284 -65 -75 -250 -213 -344
-256 -234 -109 -451 -138 -728 -99 -96 14 -232 53 -189 54 12 1 27 8 34 16 7
8 19 15 27 15 8 0 33 14 55 32 28 22 53 32 86 35 l47 4 30 -58 c23 -43 41 -63
69 -77 43 -21 126 -24 180 -6 39 13 93 68 108 112 12 33 25 34 98 9 62 -21
140 -17 181 11 24 16 55 69 83 141 l15 37 73 0 c40 1 90 7 111 14 38 14 77 43
75 55 -1 3 2 19 7 36 5 17 3 59 -4 103 -13 73 -12 74 12 94 23 18 177 78 186
72 2 -2 -9 -29 -24 -60z m-2465 36 c0 -5 -5 -10 -11 -10 -5 0 -7 5 -4 10 3 6
8 10 11 10 2 0 4 -4 4 -10z m36 -123 c12 -59 12 -59 -12 -53 -52 13 -100 -29
-111 -97 -14 -86 70 -229 142 -243 47 -8 87 13 101 54 l11 34 30 -36 c46 -52
49 -71 17 -117 -21 -31 -38 -42 -80 -55 -54 -15 -78 -13 -151 13 -44 16 -53
27 -30 37 6 3 0 4 -15 1 -21 -4 -32 2 -59 32 -17 20 -44 62 -58 93 -23 49 -26
67 -26 171 0 112 1 117 29 153 44 58 81 77 146 74 l54 -3 12 -58z m1798 -41
c64 -27 116 -100 116 -163 0 -61 -26 -119 -65 -143 -108 -67 -224 36 -213 190
6 81 41 121 116 129 7 0 28 -5 46 -13z m-394 0 c0 -2 -7 -7 -16 -10 -8 -3 -12
-2 -9 4 6 10 25 14 25 6z m-40 -20 c0 -2 -7 -7 -16 -10 -8 -3 -12 -2 -9 4 6
10 25 14 25 6z m-1689 -21 c-18 -8 -36 -15 -40 -15 -13 1 45 29 59 29 8 0 0
-6 -19 -14z m-86 -45 c-10 -11 -21 -17 -24 -14 -3 3 3 12 13 20 28 20 32 17
11 -6z m1897 -22 c9 -13 16 -26 17 -30 2 -16 37 -43 66 -53 45 -15 45 -50 1
-76 l-35 -20 21 -21 c23 -23 19 -75 -9 -95 -23 -18 -78 -16 -97 3 -23 22 -20
42 12 78 23 26 28 40 24 69 -2 20 -10 37 -16 37 -8 0 -11 -11 -8 -30 8 -53
-52 -92 -86 -58 -17 17 -15 58 5 82 10 12 5 9 -11 -5 -27 -25 -27 -27 -13 -60
8 -19 26 -43 41 -52 25 -17 26 -19 11 -47 -32 -63 -97 -59 -130 8 -27 55 -31
177 -8 222 25 48 61 52 96 11 l25 -31 7 30 c6 29 38 60 61 60 6 0 18 -10 26
-22z m-1402 7 c0 -2 -13 -11 -30 -20 -38 -19 -40 -11 -2 9 31 17 32 18 32 11z
m-391 -58 c-21 -17 -79 -45 -79 -38 0 8 58 39 74 40 5 1 7 0 5 -2z m1171 -77
c-8 -5 -19 -10 -25 -10 -5 0 -3 5 5 10 8 5 20 10 25 10 6 0 3 -5 -5 -10z
m-1130 -64 c0 -2 -12 -12 -27 -21 l-28 -18 19 21 c17 20 36 29 36 18z m855
-56 c-3 -5 -12 -10 -18 -10 -7 0 -6 4 3 10 19 12 23 12 15 0z m-90 -40 c-3 -5
-12 -10 -18 -10 -7 0 -6 4 3 10 19 12 23 12 15 0z m-715 -3 c0 -11 -50 -45
-55 -37 -3 5 7 15 22 23 34 18 33 18 33 14z m622 -37 c-45 -28 -159 -84 -149
-74 11 11 160 92 172 93 6 1 -5 -8 -23 -19z m-396 -157 c-2 -3 -8 -5 -13 -5
-4 0 -17 -4 -28 -10 -18 -8 -18 -8 -3 5 15 12 55 21 44 10z"/>
<path d="M2027 3401 c-39 -25 -55 -50 -67 -106 -13 -59 7 -130 47 -166 l27
-24 -26 33 c-57 69 -45 184 22 230 50 34 128 28 171 -14 66 -62 77 -134 33
-200 -15 -21 -19 -32 -10 -24 76 62 55 212 -38 269 -43 27 -120 28 -159 2z"/>
<path d="M2354 3346 c21 -44 46 -67 46 -42 0 14 -51 85 -61 86 -3 0 3 -20 15
-44z"/>
<path d="M2070 3350 c-14 -12 -19 -19 -12 -15 31 16 57 -46 30 -73 -16 -16
-33 -15 -52 4 -15 14 -16 12 -16 -21 0 -72 43 -115 114 -115 26 0 41 8 65 35
51 59 51 102 -2 168 -31 39 -93 48 -127 17z"/>
<path d="M3785 3149 c-20 -39 -35 -73 -32 -75 3 -3 8 4 12 15 3 11 11 19 18
17 7 -1 9 -1 6 1 -4 2 6 28 22 58 16 30 25 55 20 55 -5 0 -25 -32 -46 -71z"/>
<path d="M3087 3100 c3 -11 9 -22 13 -25 5 -3 6 4 3 15 -3 11 -9 22 -13 25 -5
3 -6 -4 -3 -15z"/>
<path d="M1890 3040 c0 -5 5 -10 10 -10 6 0 10 5 10 10 0 6 -4 10 -10 10 -5 0
-10 -4 -10 -10z"/>
<path d="M3940 2480 c-26 -26 -25 -34 9 -106 34 -72 74 -109 102 -93 29 15 24
67 -13 140 -25 48 -38 63 -52 61 -11 -2 -15 1 -11 7 11 19 -14 12 -35 -9z"/>
<path d="M1505 2249 c-55 -29 -101 -53 -103 -54 -2 -2 28 -13 65 -24 37 -12
73 -24 78 -27 6 -2 15 8 21 23 6 16 21 52 33 81 11 28 17 52 13 52 -4 0 -52
-23 -107 -51z"/>
<path d="M1631 2208 c-17 -45 -30 -82 -29 -84 8 -8 163 -53 167 -48 4 4 -8 29
-81 166 l-26 46 -31 -80z"/>
<path d="M1446 2037 l58 -116 23 77 c12 42 22 81 23 85 0 9 -91 52 -133 63
l-28 6 57 -115z"/>
<path d="M1571 2005 c-11 -40 -21 -78 -21 -84 0 -5 30 5 68 23 37 18 88 39
115 46 49 13 59 24 30 33 -10 3 -52 17 -94 30 l-77 25 -21 -73z"/>
<path d="M2916 2274 c-5 -12 -2 -15 10 -10 8 3 18 6 20 6 3 0 2 5 -1 10 -9 15
-22 12 -29 -6z"/>
<path d="M2900 2240 c8 -5 20 -10 25 -10 6 0 3 5 -5 10 -8 5 -19 10 -25 10 -5
0 -3 -5 5 -10z"/>
<path d="M3023 2058 c-21 -27 -26 -41 -14 -33 10 6 11 3 2 -13 -9 -16 -7 -32
7 -69 30 -83 118 -109 158 -47 14 21 15 31 5 63 -22 75 -126 140 -158 99z"/>
<path d="M1315 1600 c3 -5 8 -10 11 -10 2 0 4 5 4 10 0 6 -5 10 -11 10 -5 0
-7 -4 -4 -10z"/>
<path d="M3160 1285 c0 -13 68 -45 97 -45 49 0 47 15 -3 17 -24 0 -55 8 -69
17 -14 9 -25 14 -25 11z"/>
<path d="M3321 1267 c-13 -21 -12 -21 5 -5 10 10 16 20 13 22 -3 3 -11 -5 -18
-17z"/>
</g>
</svg>
