<svg width="600" height="400" viewBox="0 0 600 400" fill="none" xmlns="http://www.w3.org/2000/svg">
  <!-- Background -->
  <rect width="600" height="400" rx="20" fill="#FEF9C3"/>
  
  <!-- Farm Elements -->
  <rect x="0" y="200" width="600" height="200" fill="#D9F99D"/>
  
  <!-- Barn -->
  <rect x="50" y="150" width="150" height="100" fill="#EA580C"/>
  <path d="M40 150H210L125 80L40 150Z" fill="#7C2D12"/>
  <rect x="90" y="200" width="70" height="50" fill="#7C2D12"/>
  <rect x="70" y="170" width="30" height="30" fill="#BFDBFE"/>
  <rect x="150" y="170" width="30" height="30" fill="#BFDBFE"/>
  
  <!-- Fence -->
  <rect x="250" y="250" width="300" height="5" fill="#7C2D12"/>
  <rect x="250" y="270" width="300" height="5" fill="#7C2D12"/>
  <rect x="270" y="230" width="5" height="60" fill="#7C2D12"/>
  <rect x="320" y="230" width="5" height="60" fill="#7C2D12"/>
  <rect x="370" y="230" width="5" height="60" fill="#7C2D12"/>
  <rect x="420" y="230" width="5" height="60" fill="#7C2D12"/>
  <rect x="470" y="230" width="5" height="60" fill="#7C2D12"/>
  <rect x="520" y="230" width="5" height="60" fill="#7C2D12"/>
  
  <!-- Chickens -->
  <!-- Golden Chicken -->
  <circle cx="300" cy="330" r="30" fill="#FBBF24"/>
  <ellipse cx="310" cy="320" rx="5" ry="7" fill="white"/>
  <circle cx="310" cy="320" r="2" fill="black"/>
  <path d="M320 330C325 330 325 335 320 335" stroke="#B45309" stroke-width="3"/>
  <path d="M290 350L295 360L300 350" stroke="#B45309" stroke-width="3"/>
  <path d="M300 350L305 360L310 350" stroke="#B45309" stroke-width="3"/>
  
  <!-- Regular Chicken -->
  <circle cx="380" cy="330" r="25" fill="#FEFCE8"/>
  <ellipse cx="390" cy="320" rx="4" ry="6" fill="white"/>
  <circle cx="390" cy="320" r="2" fill="black"/>
  <path d="M395 330C400 330 400 333 395 333" stroke="#B45309" stroke-width="2"/>
  <path d="M375 345L379 355L383 345" stroke="#B45309" stroke-width="2"/>
  <path d="M383 345L387 355L391 345" stroke="#B45309" stroke-width="2"/>
  
  <!-- Baby Chicken -->
  <circle cx="450" cy="330" r="20" fill="#FEF08A"/>
  <ellipse cx="455" cy="325" rx="3" ry="4" fill="white"/>
  <circle cx="455" cy="325" r="1.5" fill="black"/>
  <path d="M460 330C463 330 463 332 460 332" stroke="#B45309" stroke-width="2"/>
  <path d="M445 340L448 348L451 340" stroke="#B45309" stroke-width="2"/>
  <path d="M451 340L454 348L457 340" stroke="#B45309" stroke-width="2"/>
  
  <!-- Game Elements -->
  <!-- Eggs -->
  <ellipse cx="290" cy="370" rx="15" ry="10" fill="white"/>
  <ellipse cx="330" cy="370" rx="15" ry="10" fill="white"/>
  <ellipse cx="370" cy="370" rx="15" ry="10" fill="white"/>
  
  <!-- Water Bucket -->
  <path d="M500 310C500 300 520 300 520 310V340C520 350 500 350 500 340V310Z" fill="#7DD3FC"/>
  <path d="M500 310C500 300 520 300 520 310" stroke="#475569" stroke-width="2"/>
  <line x1="510" y1="300" x2="510" y2="290" stroke="#475569" stroke-width="2"/>
  
  <!-- Wheat -->
  <path d="M550 340L550 320C550 320 545 310 540 320C535 330 530 320 525 320C520 320 515 330 510 320C510 320 510 340 510 340Z" fill="#FCD34D"/>
  <line x1="530" y1="340" x2="530" y2="360" stroke="#78350F" stroke-width="2"/>
  
  <!-- UI Elements -->
  <!-- Coin -->
  <circle cx="540" cy="120" r="30" fill="#FBBF24"/>
  <text x="530" y="130" font-family="Arial" font-size="24" font-weight="bold" fill="#7C2D12">$</text>
  
  <!-- Heart -->
  <path d="M460 120C460 100 430 100 430 120C430 140 460 150 460 150C460 150 490 140 490 120C490 100 460 100 460 120Z" fill="#F87171"/>
  
  <!-- Level Up Icon -->
  <path d="M380 120L400 90L420 120H380Z" fill="#22C55E"/>
  <rect x="390" y="120" width="20" height="20" fill="#22C55E"/>
  
  <!-- Game Title -->
  <text x="80" y="50" font-family="Arial" font-size="24" font-weight="bold" fill="#7C2D12">ChickFarms</text>
  <text x="80" y="80" font-family="Arial" font-size="16" fill="#7C2D12">Farm, Shoot, Earn!</text>
</svg>