<svg width="200" height="200" viewBox="0 0 200 200" fill="none" xmlns="http://www.w3.org/2000/svg">
  <!-- Background Circle -->
  <circle cx="100" cy="100" r="100" fill="#FEF3C7"/>
  
  <!-- Chicken Body -->
  <circle cx="90" cy="120" r="65" fill="#FBBF24"/>
  
  <!-- Wings -->
  <path d="M40 115C30 100 20 110 25 125C30 140 50 145 40 115Z" fill="#F59E0B"/>
  <path d="M140 115C150 100 160 110 155 125C150 140 130 145 140 115Z" fill="#F59E0B"/>
  
  <!-- Head -->
  <circle cx="90" cy="70" r="30" fill="#FBBF24"/>
  
  <!-- Eyes -->
  <circle cx="80" cy="60" r="6" fill="white"/>
  <circle cx="100" cy="60" r="6" fill="white"/>
  <circle cx="80" cy="60" r="3" fill="#1F2937"/>
  <circle cx="100" cy="60" r="3" fill="#1F2937"/>
  
  <!-- Beak -->
  <path d="M90 70L85 80L95 80L90 70Z" fill="#B45309"/>
  
  <!-- Comb -->
  <path d="M80 40C85 30 90 35 95 30C100 35 105 30 110 40C105 45 95 45 90 45C85 45 75 45 80 40Z" fill="#EF4444"/>
  
  <!-- Feet -->
  <path d="M65 165L55 185L75 185L65 165Z" fill="#B45309"/>
  <path d="M115 165L105 185L125 185L115 165Z" fill="#B45309"/>
  
  <!-- Farm Elements -->
  <path d="M140 50C145 40 150 45 155 40C160 45 165 40 170 50C165 55 155 55 150 55C145 55 135 55 140 50Z" fill="#22C55E"/>
  <path d="M25 50C30 40 35 45 40 40C45 45 50 40 55 50C50 55 40 55 35 55C30 55 20 55 25 50Z" fill="#22C55E"/>
  
  <!-- Egg -->
  <ellipse cx="145" cy="150" rx="18" ry="25" fill="white"/>
  
  <!-- Text "ChickFarms" -->
  <path d="M35 165C35 155 45 150 55 150C65 150 75 155 75 165C75 175 65 180 55 180C45 180 35 175 35 165Z" stroke="#92400E" stroke-width="4" stroke-linecap="round"/>
  <path d="M80 150V180" stroke="#92400E" stroke-width="4" stroke-linecap="round"/>
  <path d="M80 165H90" stroke="#92400E" stroke-width="4" stroke-linecap="round"/>
  <path d="M95 150V180" stroke="#92400E" stroke-width="4" stroke-linecap="round"/>
  <path d="M95 150C95 150 105 150 105 160C105 170 95 170 95 170" stroke="#92400E" stroke-width="4" stroke-linecap="round"/>
  <path d="M110 150V180" stroke="#92400E" stroke-width="4" stroke-linecap="round"/>
  <path d="M110 150H120" stroke="#92400E" stroke-width="4" stroke-linecap="round"/>
  <path d="M110 165H120" stroke="#92400E" stroke-width="4" stroke-linecap="round"/>
  <path d="M110 180H120" stroke="#92400E" stroke-width="4" stroke-linecap="round"/>
</svg>