<svg width="150" height="50" viewBox="0 0 150 50" fill="none" xmlns="http://www.w3.org/2000/svg">
  <path d="M20 10C25.5228 10 30 14.4772 30 20C30 25.5228 25.5228 30 20 30C14.4772 30 10 25.5228 10 20C10 14.4772 14.4772 10 20 10Z" fill="#F59E0B"/>
  <path d="M20 12.5C19.5 12.5 19.0625 13 18.75 13.75C18.4375 14.5 18.4375 15.5 19 16C19.5625 16.5 20 16.5 20.5 16.5C21 16.5 21.5 16.5 22 16C22.5 15.5 22.5 14.5 22.25 13.75C22 13 21.5 12.5 21 12.5H20Z" fill="white"/>
  <path d="M25 17.5C25.5 17.5 26 17.75 26 18.25C26 18.75 25.75 19.25 25 19.5C24.25 19.75 24 19.5 23.5 19.25C23 19 22.25 19 22.25 18.25C22.25 17.5 23 17.5 23.75 17.5H25Z" fill="white"/>
  <path d="M15 17.5C14.5 17.5 14 17.75 14 18.25C14 18.75 14.25 19.25 15 19.5C15.75 19.75 16 19.5 16.5 19.25C17 19 17.75 19 17.75 18.25C17.75 17.5 17 17.5 16.25 17.5H15Z" fill="white"/>
  <path d="M20 24C18.5 24 17.5 23.5 17 23C16.5 22.5 16 22 16 22C16 22 17 23 18 23.5C19 24 20 24 21 24C22 24 23 23.5 24 23C25 22.5 25 22 25 22C25 22 24.5 22.5 24 23C23.5 23.5 21.5 24 20 24Z" fill="#FBBF24"/>
  <path d="M40 17.5L42.5 10H45L47.5 17.5H45L44.5 15.5H42.5L42 17.5H40ZM43 14H44L43.5 12L43 14Z" fill="#FEEBC8"/>
  <path d="M50 17.5V10H52.5C53.5 10 54.5 10.5 55 11C55.5 11.5 56 12.5 56 13.5C56 14.5 55.5 15.5 55 16C54.5 16.5 53.5 17 52.5 17H50V17.5ZM52.5 15.5C53 15.5 53.5 15.25 53.75 15C54 14.75 54 14.25 54 13.75C54 13.25 54 12.75 53.75 12.5C53.5 12.25 53 12 52.5 12H52V15.5H52.5Z" fill="#FEEBC8"/>
  <path d="M57.5 17.5V10H60V17.5H57.5Z" fill="#FEEBC8"/>
  <path d="M64 17.5L61.5 10H64L65 14.5L66 10H68.5L66 17.5H64Z" fill="#FEEBC8"/>
  <path d="M72.5 17.5L70 10H72.5L73.5 14.5L74.5 10H77L74.5 17.5H72.5Z" fill="#FEEBC8"/>
  <path d="M80 17.5V10H82.5C83.5 10 84.5 10.5 85 11C85.5 11.5 86 12.5 86 13.5C86 14.5 85.5 15.5 85 16C84.5 16.5 83.5 17 82.5 17H82V17.5H80ZM82.5 15.5C83 15.5 83.5 15.25 83.75 15C84 14.75 84 14.25 84 13.75C84 13.25 84 12.75 83.75 12.5C83.5 12.25 83 12 82.5 12H82V15.5H82.5Z" fill="#FEEBC8"/>
  <path d="M90 17.5L87.5 10H90L90.5 12.5L91.5 10H94L91.5 14.5V17.5H90Z" fill="#FEEBC8"/>
  <path d="M95 17.5V10H97.5C98.5 10 99.5 10.25 100 10.75C100.5 11.25 101 12 101 13C101 14 100.5 14.75 100 15.25C99.5 15.75 98.5 16 97.5 16H97V17.5H95ZM97.5 14.5C97.75 14.5 98 14.5 98.25 14.25C98.5 14 98.5 13.75 98.5 13.5C98.5 13.25 98.5 13 98.25 12.75C98 12.5 97.75 12.5 97.5 12.5H97V14.5H97.5Z" fill="#FEEBC8"/>
  <path d="M104 17.5V16H101.5V14.5H104V13H101.5V11.5H104V10H101.5C101 10 100.5 10.5 100.5 11V16.5C100.5 17 101 17.5 101.5 17.5H104Z" fill="#FEEBC8"/>
  <path d="M107.5 17.5V10H110V16H112.5V17.5H107.5Z" fill="#FEEBC8"/>
  <path d="M115 17.5V10H117.5C118.5 10 119.5 10.25 120 10.75C120.5 11.25 121 12 121 13C121 14 120.5 14.75 120 15.25C119.5 15.75 118.5 16 117.5 16H117V17.5H115ZM117.5 14.5C117.75 14.5 118 14.5 118.25 14.25C118.5 14 118.5 13.75 118.5 13.5C118.5 13.25 118.5 13 118.25 12.75C118 12.5 117.75 12.5 117.5 12.5H117V14.5H117.5Z" fill="#FEEBC8"/>
  <path d="M124 17.5V16H121.5V14.5H124V13H121.5V11.5H124V10H121.5C121 10 120.5 10.5 120.5 11V16.5C120.5 17 121 17.5 121.5 17.5H124Z" fill="#FEEBC8"/>
  <path d="M125 17.5V10H127.5V14.5L129 10H131.5V17.5H129V13L127.5 17.5H125Z" fill="#FEEBC8"/>
  <path d="M135 17.5L132.5 10H135L136 14.5L137 10H139.5L137 17.5H135Z" fill="#FEEBC8"/>
  <path d="M40 40V32.5H42.5V38.5H45V40H40Z" fill="#FEEBC8"/>
  <path d="M48.5 40L46 32.5H48.5L49.5 37L50.5 32.5H53L50.5 40H48.5Z" fill="#FEEBC8"/>
  <path d="M56 40V38.5H53.5V37H56V35.5H53.5V34H56V32.5H53.5C53 32.5 52.5 33 52.5 33.5V39C52.5 39.5 53 40 53.5 40H56Z" fill="#FEEBC8"/>
  <path d="M60 40V32.5H62.5V40H60Z" fill="#FEEBC8"/>
  <path d="M70 40V32.5H72.5V37L74 32.5H76.5V40H74V35.5L72.5 40H70Z" fill="#FEEBC8"/>
  <path d="M80 40V32.5H82.5V40H80Z" fill="#FEEBC8"/>
  <path d="M85 40V32.5H87.5V37L89 32.5H91.5V40H89V35.5L87.5 40H85Z" fill="#FEEBC8"/>
  <path d="M95 40V32.5H97.5C98.5 32.5 99.5 33 100 33.5C100.5 34 101 35 101 36C101 37 100.5 38 100 38.5C99.5 39 98.5 39.5 97.5 39.5H95V40ZM97.5 38C98 38 98.5 37.75 98.75 37.5C99 37.25 99 36.75 99 36.25C99 35.75 99 35.25 98.75 35C98.5 34.75 98 34.5 97.5 34.5H97V38H97.5Z" fill="#FEEBC8"/>
  <path d="M110 36.25C110 38.25 108.5 40 106.5 40C104.5 40 103 38.25 103 36.25C103 34.25 104.5 32.5 106.5 32.5C108.5 32.5 110 34.25 110 36.25ZM107.5 36.25C107.5 35.5 107 35 106.5 35C106 35 105.5 35.5 105.5 36.25C105.5 37 106 37.5 106.5 37.5C107 37.5 107.5 37 107.5 36.25Z" fill="#FEEBC8"/>
  <path d="M113 40V32.5H115.5V40H113Z" fill="#FEEBC8"/>
  <path d="M120 40V38.5H117.5V37H120V35.5H117.5V34H120V32.5H117.5C117 32.5 116.5 33 116.5 33.5V39C116.5 39.5 117 40 117.5 40H120Z" fill="#FEEBC8"/>
</svg>