<?xml version="1.0" encoding="UTF-8"?>
<svg xmlns="http://www.w3.org/2000/svg" viewBox="0 0 200 200">
  <!-- Golden Chicken -->
  <g>
    <!-- Glow effect -->
    <ellipse cx="100" cy="120" rx="65" ry="55" fill="#FFF8E1" opacity="0.5"/>
  
    <!-- Body -->
    <ellipse cx="100" cy="120" rx="60" ry="50" fill="#FFD700" stroke="#FFC107" stroke-width="3"/>
    
    <!-- Head -->
    <circle cx="100" cy="60" r="35" fill="#FFD700" stroke="#FFC107" stroke-width="3"/>
    
    <!-- Crown -->
    <path d="M80,40 L90,25 L100,35 L110,25 L120,40" fill="#FFD700" stroke="#B7950B" stroke-width="2"/>
    <circle cx="90" cy="25" r="3" fill="#B7950B"/>
    <circle cx="100" cy="35" r="3" fill="#B7950B"/>
    <circle cx="110" cy="25" r="3" fill="#B7950B"/>
    
    <!-- Eyes -->
    <circle cx="88" cy="55" r="6" fill="#333"/>
    <circle cx="112" cy="55" r="6" fill="#333"/>
    <circle cx="86" cy="53" r="2" fill="white"/>
    <circle cx="110" cy="53" r="2" fill="white"/>
    
    <!-- Beak -->
    <polygon points="100,65 85,80 115,80" fill="#FF9800" stroke="#E65100" stroke-width="1"/>
    
    <!-- Feet -->
    <path d="M70,170 L60,180 L80,180 Z" fill="#FF9800" stroke="#E65100" stroke-width="1"/>
    <path d="M130,170 L120,180 L140,180 Z" fill="#FF9800" stroke="#E65100" stroke-width="1"/>
    
    <!-- Wings -->
    <ellipse cx="55" cy="120" rx="20" ry="32" fill="#FFF9C4" stroke="#FFC107" stroke-width="2"/>
    <ellipse cx="145" cy="120" rx="20" ry="32" fill="#FFF9C4" stroke="#FFC107" stroke-width="2"/>
    
    <!-- Crest/Comb -->
    <path d="M100,25 L90,35 L105,30 L95,40 L110,35 L100,45 L120,40 Z" fill="#F44336" stroke="#B71C1C" stroke-width="1"/>
    
    <!-- Tail feathers - more elaborate -->
    <path d="M100,160 L110,185 L120,170 L130,190 L140,175 L150,195" fill="none" stroke="#FFC107" stroke-width="3" stroke-linecap="round"/>
    
    <!-- Sparkles -->
    <circle cx="130" cy="80" r="2" fill="white"/>
    <circle cx="140" cy="110" r="2" fill="white"/>
    <circle cx="65" cy="90" r="2" fill="white"/>
    <circle cx="85" cy="150" r="2" fill="white"/>
    <circle cx="120" cy="140" r="2" fill="white"/>
  </g>
</svg>