<svg width="120" height="120" viewBox="0 0 120 120" fill="none" xmlns="http://www.w3.org/2000/svg">
  <!-- Body -->
  <ellipse cx="60" cy="65" rx="40" ry="35" fill="#F8BD45"/>
  
  <!-- Head -->
  <circle cx="60" cy="30" r="25" fill="#F8BD45"/>
  
  <!-- Wide Eyes -->
  <circle cx="50" cy="25" r="6" fill="white"/>
  <circle cx="70" cy="25" r="6" fill="white"/>
  <circle cx="50" cy="25" r="3" fill="black"/>
  <circle cx="70" cy="25" r="3" fill="black"/>
  <path d="M46 20 L54 18" stroke="black" stroke-width="1.5" stroke-linecap="round"/>
  <path d="M66 20 L74 18" stroke="black" stroke-width="1.5" stroke-linecap="round"/>
  
  <!-- Excited Beak -->
  <path d="M60 30 L50 40 H70 Z" fill="#FF6B35"/>
  <ellipse cx="60" cy="38" rx="5" ry="3" fill="#CC4000"/>
  
  <!-- Comb (More Standing) -->
  <path d="M45 5 L50 15 L55 5 L60 15 L65 5 L70 15 L75 5" stroke="#E74C3C" stroke-width="5" stroke-linecap="round"/>
  
  <!-- Feet (Dancing) -->
  <path d="M45 100 L35 108" stroke="#FF6B35" stroke-width="3" stroke-linecap="round"/>
  <path d="M75 100 L85 108" stroke="#FF6B35" stroke-width="3" stroke-linecap="round"/>
  
  <!-- Wings (Flapping) -->
  <path d="M20 50 C10 40, 8 65, 20 75" stroke="#E57E31" stroke-width="5" stroke-linecap="round"/>
  <path d="M100 50 C110 40, 112 65, 100 75" stroke="#E57E31" stroke-width="5" stroke-linecap="round"/>
  
  <!-- Excitement Lines -->
  <path d="M30 20 L25 15" stroke="#FFD700" stroke-width="2" stroke-linecap="round"/>
  <path d="M90 20 L95 15" stroke="#FFD700" stroke-width="2" stroke-linecap="round"/>
  <path d="M30 35 L25 40" stroke="#FFD700" stroke-width="2" stroke-linecap="round"/>
  <path d="M90 35 L95 40" stroke="#FFD700" stroke-width="2" stroke-linecap="round"/>
  
  <!-- Stars -->
  <path d="M20 25 L22 30 L25 25 L20 28 L25 28 Z" fill="#FFD700"/>
  <path d="M100 25 L102 30 L105 25 L100 28 L105 28 Z" fill="#FFD700"/>
</svg>