<svg width="120" height="120" viewBox="0 0 120 120" fill="none" xmlns="http://www.w3.org/2000/svg">
  <!-- Body -->
  <ellipse cx="60" cy="65" rx="40" ry="35" fill="#F8BD45"/>
  
  <!-- Head -->
  <circle cx="60" cy="30" r="25" fill="#F8BD45"/>
  
  <!-- Happy Eyes -->
  <path d="M45 25 Q50 20, 55 25" stroke="black" stroke-width="2.5" stroke-linecap="round"/>
  <path d="M65 25 Q70 20, 75 25" stroke="black" stroke-width="2.5" stroke-linecap="round"/>
  
  <!-- Beak -->
  <path d="M60 30 L50 40 H70 Z" fill="#FF6B35"/>
  
  <!-- Smiling Beak -->
  <path d="M55 38 Q60 42, 65 38" stroke="#CC4000" stroke-width="2" stroke-linecap="round"/>
  
  <!-- Comb -->
  <path d="M45 10 L50 18 L55 10 L60 18 L65 10 L70 18 L75 10" stroke="#E74C3C" stroke-width="5" stroke-linecap="round"/>
  
  <!-- Feet -->
  <path d="M45 100 L40 110 L45 105 L50 110" stroke="#FF6B35" stroke-width="3" stroke-linecap="round"/>
  <path d="M75 100 L70 110 L75 105 L80 110" stroke="#FF6B35" stroke-width="3" stroke-linecap="round"/>
  
  <!-- Wings -->
  <path d="M25 60 C15 50, 10 70, 25 80" stroke="#E57E31" stroke-width="5" stroke-linecap="round"/>
  <path d="M95 60 C105 50, 110 70, 95 80" stroke="#E57E31" stroke-width="5" stroke-linecap="round"/>
  
  <!-- Sparkles -->
  <path d="M40 15 L42 20 M38 18 L44 18" stroke="#FFD700" stroke-width="1.5" stroke-linecap="round"/>
  <path d="M80 15 L82 20 M78 18 L84 18" stroke="#FFD700" stroke-width="1.5" stroke-linecap="round"/>
</svg>