<?xml version="1.0" encoding="UTF-8"?>
<svg width="200px" height="120px" viewBox="0 0 200 120" version="1.1" xmlns="http://www.w3.org/2000/svg" xmlns:xlink="http://www.w3.org/1999/xlink">
    <g stroke="none" stroke-width="1" fill="none" fill-rule="evenodd">
        <path d="M178.974,79.066 C178.974,85.043 176.997,90.519 173.537,94.94 C170.076,99.36 165.241,102.55 159.682,103.956 C159.842,102.88 159.922,101.804 159.922,100.647 C159.922,95.206 158.105,90.28 154.965,86.374 C151.825,82.469 147.31,79.781 142.151,79.066 C142.151,79.066 142.151,79.066 142.151,78.986 C142.151,69.532 138.371,61.214 132.412,55.512 C126.453,49.811 118.213,46.381 109.092,46.381 C99.972,46.381 91.732,49.811 85.773,55.512 C79.813,61.214 76.034,69.532 76.034,78.986 C76.034,79.066 76.034,79.066 76.034,79.066 C70.953,79.607 66.518,82.03 63.459,85.576 C60.399,89.122 58.663,93.812 58.663,98.736 C58.663,99.616 58.743,100.487 58.823,101.367 C53.025,99.696 48.025,95.956 44.645,91.06 C41.265,86.164 39.448,80.142 39.448,73.795 C39.448,67.528 41.265,61.587 44.565,56.612 C47.865,51.636 52.785,47.777 58.743,45.909 C59.783,34.409 64.818,24.068 72.734,16.693 C80.65,9.318 91.411,5 103.213,5 C115.734,5 127.014,9.868 135.091,18.162 C143.167,26.456 147.871,37.919 147.871,50.285 C147.871,52.394 147.711,54.423 147.47,56.452 C148.031,56.372 148.59,56.372 149.151,56.292 C159.602,56.292 168.923,60.881 175.564,68.016 C182.284,75.232 186.383,85.133 186.383,95.956 C186.383,109.243 180.104,120.984 170.263,127.881 C160.342,134.778 146.94,136.646 135.411,131.67 C131.07,132.471 126.534,132.912 121.833,132.912 C114.876,132.912 108.305,131.831 102.095,129.75 C95.964,127.642 90.352,124.496 85.534,120.424 C80.714,116.353 76.756,111.347 73.936,105.785 C71.112,100.224 69.376,94.143 69.376,87.733 C69.376,87.254 69.376,86.774 69.376,86.294 C71.673,89.201 74.618,91.629 78.003,93.369 C81.383,95.108 85.216,96.105 89.209,96.105 C91.262,96.105 93.243,95.799 95.151,95.266 C95.311,102.421 98.204,108.975 103.134,113.58 C108.065,118.186 114.871,120.823 122.388,120.823 C129.905,120.823 136.711,118.186 141.642,113.58 C146.573,108.975 149.466,102.421 149.626,95.266 C151.534,95.799 153.515,96.105 155.568,96.105 C159.562,96.105 163.394,95.108 166.774,93.369 C170.159,91.629 173.104,89.201 175.401,86.294 C175.401,86.774 175.401,87.254 175.401,87.733 C175.401,97.866 171.943,107.248 166.051,114.464 C160.16,121.679 151.817,126.599 142.217,127.836 C133.57,128.993 124.717,127.029 117.366,122.685 C109.935,118.306 104.132,111.387 101.398,103.149 C100.597,103.237 99.797,103.315 98.991,103.384 C98.19,103.454 97.384,103.493 96.574,103.493 C89.297,103.493 82.576,101.011 77.408,96.842 C72.24,92.672 68.78,86.793 68.54,80.199 C68.54,80.122 68.54,80.044 68.54,79.967 C68.54,66.879 73.548,55.08 82.035,46.535 C90.435,38.059 102.177,33.018 115.174,33.018 C124.754,33.018 133.654,36.068 140.864,41.267 C148.084,46.457 153.424,53.65 155.824,62.068 C157.384,61.766 158.944,61.614 160.574,61.614 C166.704,61.614 172.344,63.786 176.684,67.407 C181.024,71.037 183.904,76.107 183.984,81.8 C183.984,81.878 183.984,81.878 183.984,81.955 C183.984,94.435 177.894,105.076 168.524,110.962 C159.154,116.84 146.354,117.758 135.364,111.879 C133.404,112.18 131.374,112.332 129.284,112.332 C118.904,112.332 109.614,107.982 103.484,100.968 C97.354,93.954 94.394,84.324 96.734,75.082 C91.824,74.386 87.334,72.044 84.214,68.571 C81.164,65.177 79.274,60.723 79.274,55.876 C79.274,51.029 81.164,46.574 84.214,43.18 C87.264,39.787 91.664,37.445 96.494,36.749 C96.494,36.671 96.494,36.671 96.494,36.594 C96.494,27.435 100.134,19.392 105.904,13.682 C111.676,7.972 119.654,4.609 128.524,4.609 C132.864,4.609 137.044,5.536 140.784,7.163 C144.524,8.782 147.824,11.09 150.584,13.987 C153.344,16.885 155.574,20.395 157.044,24.287 C158.514,28.179 159.344,32.459 159.344,36.976 C159.344,37.215 159.344,37.445 159.344,37.672 C170.094,39.865 178.974,48.596 178.974,59.194 L178.974,79.066 Z" fill="#FFFFFF"></path>
    </g>
</svg>