<svg width="800" height="600" viewBox="0 0 800 600" fill="none" xmlns="http://www.w3.org/2000/svg">
  <!-- Sky -->
  <rect width="800" height="600" fill="#FEF3C7"/>
  
  <!-- Sun -->
  <circle cx="700" cy="100" r="60" fill="#FBBF24"/>
  <circle cx="700" cy="100" r="70" fill="#FBBF24" fill-opacity="0.5"/>
  <circle cx="700" cy="100" r="80" fill="#FBBF24" fill-opacity="0.2"/>
  
  <!-- Hills in the background -->
  <path d="M0 400C100 350 200 320 300 350C400 380 500 350 600 320C700 290 800 310 800 310V600H0V400Z" fill="#D1FAE5"/>
  
  <!-- Fields -->
  <path d="M0 450C50 430 150 440 200 450C250 460 350 470 400 450C450 430 550 440 600 450C650 460 750 460 800 450V600H0V450Z" fill="#FEF08A"/>
  
  <!-- Farm House -->
  <rect x="150" y="350" width="100" height="80" fill="#FBBF24"/>
  <path d="M140 350H260L200 300L140 350Z" fill="#B45309"/>
  <rect x="180" y="380" width="40" height="50" fill="#92400E"/>
  <rect x="160" y="360" width="20" height="20" fill="#E0F2FE"/>
  <rect x="220" y="360" width="20" height="20" fill="#E0F2FE"/>
  
  <!-- Fence -->
  <rect x="300" y="420" width="400" height="5" fill="#92400E"/>
  <rect x="300" y="440" width="400" height="5" fill="#92400E"/>
  <rect x="320" y="400" width="5" height="60" fill="#92400E"/>
  <rect x="360" y="400" width="5" height="60" fill="#92400E"/>
  <rect x="400" y="400" width="5" height="60" fill="#92400E"/>
  <rect x="440" y="400" width="5" height="60" fill="#92400E"/>
  <rect x="480" y="400" width="5" height="60" fill="#92400E"/>
  <rect x="520" y="400" width="5" height="60" fill="#92400E"/>
  <rect x="560" y="400" width="5" height="60" fill="#92400E"/>
  <rect x="600" y="400" width="5" height="60" fill="#92400E"/>
  <rect x="640" y="400" width="5" height="60" fill="#92400E"/>
  <rect x="680" y="400" width="5" height="60" fill="#92400E"/>
  
  <!-- Chickens -->
  <circle cx="350" y="480" r="15" fill="#FBBF24"/>
  <circle cx="370" y="490" r="15" fill="#FEF3C7"/>
  <circle cx="390" y="480" r="15" fill="#FBBF24"/>
  <circle cx="410" y="490" r="15" fill="#FEF3C7"/>
  <circle cx="430" y="480" r="15" fill="#FBBF24"/>
  
  <!-- Chicken Details -->
  <circle cx="345" y="475" r="3" fill="#1E293B"/>
  <path d="M355 480L360 482" stroke="#B45309" stroke-width="2"/>
  <path d="M350 485L355 490L350 495" stroke="#B45309" stroke-width="2"/>
  
  <circle cx="365" y="485" r="3" fill="#1E293B"/>
  <path d="M375 490L380 492" stroke="#B45309" stroke-width="2"/>
  <path d="M370 495L375 500L370 505" stroke="#B45309" stroke-width="2"/>
  
  <circle cx="385" y="475" r="3" fill="#1E293B"/>
  <path d="M395 480L400 482" stroke="#B45309" stroke-width="2"/>
  <path d="M390 485L395 490L390 495" stroke="#B45309" stroke-width="2"/>
  
  <!-- Trees -->
  <rect x="700" y="300" width="20" height="150" fill="#92400E"/>
  <circle cx="710" cy="250" r="50" fill="#22C55E"/>
  
  <rect x="600" y="330" width="15" height="100" fill="#92400E"/>
  <circle cx="607" cy="290" r="40" fill="#22C55E"/>
  
  <!-- Cloud 1 -->
  <circle cx="200" cy="100" r="30" fill="white" fill-opacity="0.8"/>
  <circle cx="230" cy="90" r="30" fill="white" fill-opacity="0.8"/>
  <circle cx="250" cy="110" r="25" fill="white" fill-opacity="0.8"/>
  <circle cx="180" cy="110" r="25" fill="white" fill-opacity="0.8"/>
  
  <!-- Cloud 2 -->
  <circle cx="500" cy="150" r="25" fill="white" fill-opacity="0.8"/>
  <circle cx="530" cy="140" r="25" fill="white" fill-opacity="0.8"/>
  <circle cx="550" cy="160" r="20" fill="white" fill-opacity="0.8"/>
  <circle cx="480" cy="160" r="20" fill="white" fill-opacity="0.8"/>
</svg>