<svg width="400" height="300" viewBox="0 0 400 300" fill="none" xmlns="http://www.w3.org/2000/svg">
  <!-- Background -->
  <rect width="400" height="300" rx="16" fill="white"/>
  <rect width="400" height="300" rx="16" stroke="#E5E7EB" stroke-width="1"/>
  
  <!-- Header -->
  <rect width="400" height="50" rx="16" fill="#FEF3C7"/>
  <text x="20" y="32" font-family="Arial" font-size="18" font-weight="bold" fill="#92400E">Marketplace</text>
  <text x="300" y="25" font-family="Arial" font-size="14" fill="#92400E">Balance</text>
  <text x="300" y="45" font-family="Arial" font-size="20" font-weight="bold" fill="#92400E">$250.00</text>
  
  <!-- Tabs -->
  <rect x="20" y="70" width="360" height="40" rx="8" fill="#F3F4F6"/>
  <rect x="20" y="70" width="120" height="40" rx="8" fill="#FEF3C7"/>
  <text x="55" y="95" font-family="Arial" font-size="14" font-weight="bold" fill="#92400E">Buy</text>
  <text x="175" y="95" font-family="Arial" font-size="14" fill="#6B7280">Sell</text>
  <text x="295" y="95" font-family="Arial" font-size="14" fill="#6B7280">History</text>
  
  <!-- Resources -->
  <rect x="20" y="130" width="360" height="70" rx="8" fill="#F9FAFB"/>
  <rect x="20" y="130" width="360" height="70" rx="8" stroke="#E5E7EB" stroke-width="1"/>
  
  <!-- Water -->
  <circle cx="50" cy="165" r="20" fill="#7DD3FC"/>
  <path d="M40 160C40 150 60 150 60 160" stroke="#475569" stroke-width="2"/>
  <line x1="50" y1="150" x2="50" y2="140" stroke="#475569" stroke-width="2"/>
  
  <text x="80" y="160" font-family="Arial" font-size="14" font-weight="bold" fill="#111827">Water Bucket</text>
  <text x="80" y="180" font-family="Arial" font-size="12" fill="#6B7280">Price: $5.00</text>
  
  <rect x="300" y="150" width="60" height="30" rx="6" fill="#F59E0B"/>
  <text x="320" y="170" font-family="Arial" font-size="14" text-anchor="middle" fill="white">Buy</text>
  
  <!-- Wheat -->
  <rect x="20" y="220" width="360" height="70" rx="8" fill="#F9FAFB"/>
  <rect x="20" y="220" width="360" height="70" rx="8" stroke="#E5E7EB" stroke-width="1"/>
  
  <path d="M50 255L50 235C50 235 45 225 40 235C35 245 30 235 25 235C20 235 15 245 10 235" fill="#FCD34D" transform="translate(25, 0)"/>
  <line x1="50" y1="255" x2="50" y2="275" stroke="#78350F" stroke-width="2" transform="translate(25, 0)"/>
  
  <text x="80" y="250" font-family="Arial" font-size="14" font-weight="bold" fill="#111827">Wheat Bag</text>
  <text x="80" y="270" font-family="Arial" font-size="12" fill="#6B7280">Price: $8.00</text>
  
  <rect x="300" y="240" width="60" height="30" rx="6" fill="#F59E0B"/>
  <text x="320" y="260" font-family="Arial" font-size="14" text-anchor="middle" fill="white">Buy</text>
  
  <!-- Price Chart (simplified) -->
  <rect x="380" y="130" width="0" height="130" fill="#F59E0B" fill-opacity="0.2"/>
  <polyline points="20,260 40,250 60,255 80,240 100,245 120,230 140,235 160,225 180,220 200,230 220,225 240,215 260,220 280,210 300,215 320,205 340,200 360,195 380,190" 
           stroke="#F59E0B" stroke-width="2" fill="none" transform="translate(0, -70)"/>
</svg>