<svg width="350" height="180" viewBox="0 0 350 180" fill="none" xmlns="http://www.w3.org/2000/svg">
  <path d="M313.5 80.5C335.5 51.3 298.5 27 270 40C255.2 10.8 219.5 7.5 195 25.5C172.2 -0.3 125.5 -4.8 99.5 25.5C73.5 -4 26 10.3 36 48.5C10.4 48.5 -7.5 88 12.5 117C-6.7 146.6 31 180 63 150.5C83 183.3 133 186.5 156.5 150.5C186.3 177.7 229.8 171.5 242 150.5C294.6 175.7 327 138.7 313.5 117C342.3 108.6 343.5 83.3 313.5 80.5Z" fill="#FF9B57"/>
  <path d="M301.5 103.2C298.3 113.6 290.7 118.8 278.6 118.8C255.5 160.1 207.2 142.2 207.2 119C181.7 155 119.3 148.1 113.1 118.8C78.5 156.7 25.1 130.6 40.6 88.6C12.2 94.8 5.9 58.8 40.6 57.6C26.3 24.1 72.3 12.4 84.7 41.8C117 8.3 169.3 20 169.3 67.6C206.1 26.4 262.1 46.8 255.5 87C299.1 75.3 304.7 92.8 301.5 103.2Z" fill="#FFF0CA"/>
</svg>