<svg width="400" height="300" viewBox="0 0 400 300" fill="none" xmlns="http://www.w3.org/2000/svg">
  <!-- Background -->
  <rect width="400" height="300" rx="16" fill="white"/>
  <rect width="400" height="300" rx="16" stroke="#E5E7EB" stroke-width="1"/>
  
  <!-- Header -->
  <rect width="400" height="50" rx="16" fill="#FEF3C7"/>
  <text x="20" y="32" font-family="Arial" font-size="18" font-weight="bold" fill="#92400E">Referral Program</text>
  <text x="300" y="25" font-family="Arial" font-size="14" fill="#92400E">Commission</text>
  <text x="300" y="45" font-family="Arial" font-size="20" font-weight="bold" fill="#92400E">$45.50</text>
  
  <!-- Stats -->
  <rect x="20" y="70" width="110" height="80" rx="8" fill="#F9FAFB"/>
  <rect x="20" y="70" width="110" height="80" rx="8" stroke="#E5E7EB" stroke-width="1"/>
  <text x="30" y="90" font-family="Arial" font-size="12" fill="#6B7280">Total Referrals</text>
  <text x="30" y="115" font-family="Arial" font-size="24" font-weight="bold" fill="#92400E">12</text>
  <text x="30" y="140" font-family="Arial" font-size="12" fill="#6B7280">Active: 8</text>
  
  <rect x="145" y="70" width="110" height="80" rx="8" fill="#F9FAFB"/>
  <rect x="145" y="70" width="110" height="80" rx="8" stroke="#E5E7EB" stroke-width="1"/>
  <text x="155" y="90" font-family="Arial" font-size="12" fill="#6B7280">Deposits</text>
  <text x="155" y="115" font-family="Arial" font-size="24" font-weight="bold" fill="#92400E">$455</text>
  <text x="155" y="140" font-family="Arial" font-size="12" fill="#6B7280">Commission: 10%</text>
  
  <rect x="270" y="70" width="110" height="80" rx="8" fill="#F9FAFB"/>
  <rect x="270" y="70" width="110" height="80" rx="8" stroke="#E5E7EB" stroke-width="1"/>
  <text x="280" y="90" font-family="Arial" font-size="12" fill="#6B7280">Rank</text>
  <text x="280" y="115" font-family="Arial" font-size="24" font-weight="bold" fill="#92400E">#24</text>
  <text x="280" y="140" font-family="Arial" font-size="12" fill="#6B7280">Top 10%</text>
  
  <!-- Referral Link -->
  <rect x="20" y="170" width="360" height="60" rx="8" fill="#F9FAFB"/>
  <rect x="20" y="170" width="360" height="60" rx="8" stroke="#E5E7EB" stroke-width="1"/>
  <text x="30" y="190" font-family="Arial" font-size="12" fill="#6B7280">Your Referral Link</text>
  <rect x="30" y="200" width="270" height="20" rx="4" fill="white"/>
  <rect x="30" y="200" width="270" height="20" rx="4" stroke="#D1D5DB" stroke-width="1"/>
  <text x="40" y="215" font-family="Arial" font-size="12" fill="#111827">https://chickfarms.com/ref/USER123</text>
  <rect x="310" y="200" width="60" height="20" rx="4" fill="#F59E0B"/>
  <text x="325" y="215" font-family="Arial" font-size="12" fill="white">Copy</text>
  
  <!-- Leaderboard -->
  <rect x="20" y="250" width="360" height="30" rx="8" fill="#F3F4F6"/>
  <circle cx="35" cy="265" r="10" fill="#FCD34D"/>
  <text x="35" y="269" font-family="Arial" font-size="12" font-weight="bold" text-anchor="middle" fill="#92400E">1</text>
  <text x="55" y="269" font-family="Arial" font-size="12" fill="#111827">User456</text>
  <text x="340" y="269" font-family="Arial" font-size="12" font-weight="bold" text-anchor="end" fill="#92400E">$1,235</text>
</svg>